HIERARCHY
ROOT hip
{
	OFFSET 0.000000 0.000000 0.000000 
	CHANNELS 6 Xposition Yposition Zposition Xrotation Zrotation Yrotation
	JOINT abdomen
	{
		OFFSET 0.000000 3.402643 0.000000 
		CHANNELS 3 Xrotation Zrotation Yrotation
		JOINT chest
		{
			OFFSET 0.000000 8.438565 -0.680529 
			CHANNELS 3 Xrotation Zrotation Yrotation
			JOINT neck
			{
				OFFSET 0.000000 10.207942 -0.272212 
				CHANNELS 3 Xrotation Zrotation Yrotation
				JOINT head
				{
					OFFSET 0.000000 3.130431 0.000000 
					CHANNELS 3 Xrotation Zrotation Yrotation
					End Site
					{
						OFFSET 0.000000 3.130435 0.000000 
					}
				}
			}
			JOINT lCollar
			{
				OFFSET 3.470700 6.669187 -0.816635 
				CHANNELS 3 Yrotation Zrotation Xrotation
				JOINT lShldr
				{
					OFFSET 3.198488 0.000000 0.000000 
					CHANNELS 3 Zrotation Yrotation Xrotation
					JOINT lForeArm
					{
						OFFSET 10.139888 0.000000 0.000000 
						CHANNELS 3 Yrotation Zrotation Xrotation
						JOINT lHand
						{
							OFFSET 8.370511 0.000000 0.000000 
							CHANNELS 3 Zrotation Yrotation Xrotation
							End Site
							{
								OFFSET 4.083176 0.000000 0.000000 
							}
						}
					}
				}
			}
			JOINT rCollar
			{
				OFFSET -3.470700 6.669187 -0.816635 
				CHANNELS 3 Yrotation Zrotation Xrotation
				JOINT rShldr
				{
					OFFSET -3.198488 0.000000 0.000000 
					CHANNELS 3 Zrotation Yrotation Xrotation
					JOINT rForeArm
					{
						OFFSET -10.139888 0.000000 0.000000 
						CHANNELS 3 Yrotation Zrotation Xrotation
						JOINT rHand
						{
							OFFSET -8.370511 0.000000 0.000000 
							CHANNELS 3 Zrotation Yrotation Xrotation
							End Site
							{
								OFFSET -4.083176 0.000000 0.000000 
							}
						}
					}
				}
			}
		}
	}
	JOINT lThigh
	{
		OFFSET 5.308129 -1.633274 1.361059 
		CHANNELS 3 Xrotation Zrotation Yrotation
		JOINT lShin
		{
			OFFSET -2.041588 -20.007561 0.000000 
			CHANNELS 3 Xrotation Zrotation Yrotation
			JOINT lFoot
			{
				OFFSET 0.000000 -19.190928 -1.224953 
				CHANNELS 3 Xrotation Yrotation Zrotation
				End Site
				{
					OFFSET 0.000000 -2.449906 4.627600 
				}
			}
		}
	}
	JOINT rThigh
	{
		OFFSET -5.308129 -1.633274 1.361059 
		CHANNELS 3 Xrotation Zrotation Yrotation
		JOINT rShin
		{
			OFFSET 2.041588 -20.007561 0.000000 
			CHANNELS 3 Xrotation Zrotation Yrotation
			JOINT rFoot
			{
				OFFSET 0.000000 -19.190928 -1.224953 
				CHANNELS 3 Xrotation Yrotation Zrotation
				End Site
				{
					OFFSET 0.000000 -2.449906 4.627600 
				}
			}
		}
	}
}
MOTION
Frames: 6
Frame Time: 0.033333
-0.764039 50.701530 1.434630 1.251997 0.546193 -2.861384 0.000000 0.000000 0.000000 2.951850 -3.474499 -1.976723 -20.173855 6.387838 -4.362206 18.545019 -3.935354 0.567081 -3.521967 9.154817 6.304141 -90.790436 3.832515 -18.227831 -14.222859 5.315743 28.820089 -11.647910 6.014713 -7.465541 3.089181 -14.089146 8.026228 94.152466 0.118444 -13.895802 9.527218 -7.239382 40.595978 7.825171 -0.461061 -7.306657 -2.995520 7.598340 7.870517 10.392886 -1.730668 -9.355597 -2.676128 0.368000 -3.738924 0.682140 -8.414459 -15.958723 5.285847 0.046789 7.438329 -3.646216 0.102582 -1.352839 
-0.694619 50.705322 1.597818 1.002360 0.380162 -3.466850 0.000000 0.000000 0.000000 0.592144 -2.664973 -1.603462 -19.680990 5.089623 -3.225334 18.558384 -2.919708 0.693952 -3.521967 9.154817 6.304141 -92.382736 7.053192 -19.879229 -15.585310 5.638727 25.731609 -10.651128 -0.461645 -6.521148 3.089181 -14.089146 8.026228 94.312248 -2.151453 -14.304720 9.554302 -7.268816 38.916119 7.550653 1.166566 -7.115549 -2.607434 7.694077 7.971926 10.735113 -1.689986 -9.009697 -2.854204 0.380592 -3.893606 1.043044 -8.257345 -15.782757 5.136265 -0.080926 7.673803 -3.566527 0.080583 -1.329974 
-0.600951 50.710999 1.714539 0.971663 0.360501 -3.876999 0.000000 0.000000 0.000000 -0.894751 -1.913585 -1.280214 -19.313885 3.405933 -2.093113 18.552673 -1.191348 0.566487 -3.521967 9.154817 6.304141 -93.596245 8.899467 -20.919806 -16.214148 5.872800 25.119280 -8.291530 -4.798676 -6.184215 3.089181 -14.089146 8.026228 94.440948 -3.493960 -14.876533 9.570830 -7.434179 39.724724 7.164606 1.025684 -7.174408 -2.235857 7.575219 8.016646 10.456310 -1.759809 -8.464048 -3.058831 0.377237 -3.749235 1.159477 -8.274141 -15.676981 5.033332 -0.265397 8.027030 -3.486679 0.074695 -1.342679 
-0.476786 50.713840 1.841929 0.698735 0.467538 -4.121195 0.000000 0.000000 0.000000 -1.309483 -1.542707 -1.055094 -18.796011 1.728135 -1.201509 18.548450 1.035150 0.195457 -3.521967 9.154817 6.304141 -94.525650 9.586612 -21.660704 -16.564465 6.056037 25.279381 -6.845102 -6.654340 -6.170323 3.089181 -14.089146 8.026228 94.545753 -4.014471 -15.475255 9.558320 -7.611130 40.416134 7.017965 0.628665 -7.243258 -1.806315 7.280325 7.922232 10.511317 -1.759628 -7.979564 -3.274674 0.369106 -3.638451 1.561964 -8.573686 -15.913596 4.983667 -0.274962 8.552406 -3.506467 0.100501 -1.395455 
-0.361829 50.716682 1.893112 0.632667 0.545324 -4.316583 0.000000 0.000000 0.000000 -1.229097 -1.425628 -0.840313 -18.214251 0.166010 -0.468748 18.640430 3.173806 -0.215055 -3.521967 9.154817 6.304141 -95.135941 9.246234 -22.928638 -16.937727 6.328110 26.473837 -5.867765 -4.407837 -6.591894 3.089181 -14.089146 8.026228 94.567024 -3.874853 -15.318987 9.495017 -7.542986 39.820965 6.792375 0.623045 -7.272438 -1.873824 7.003960 7.691816 10.919088 -1.603753 -7.618856 -3.262858 0.408710 -3.896527 1.620793 -8.720134 -15.877666 4.906594 -0.450708 8.809576 -3.442330 0.053478 -1.393554 
-0.342389 50.722813 1.851158 1.012745 0.418687 -4.394628 0.000000 0.000000 0.000000 -0.844094 -1.337803 -0.654575 -17.743116 -1.201172 -0.049022 18.741905 5.067922 -0.754189 -3.521967 9.154817 6.304141 -95.227715 8.092341 -23.864542 -17.278984 6.517864 26.420532 -5.563186 -2.137763 -6.893694 3.089181 -14.089146 8.026228 94.809334 -3.156563 -15.270801 9.565029 -7.529913 39.268711 6.519104 0.836051 -7.276540 -2.274180 7.220976 7.891478 10.923532 -1.777502 -7.680768 -3.277370 0.396882 -3.838203 1.169774 -8.539086 -15.669222 4.883178 -0.498351 8.749119 -3.211971 0.087816 -1.357345 
